<svg width="61" height="81" viewBox="0 0 61 81" fill="none" xmlns="http://www.w3.org/2000/svg">
<path d="M15.1974 4.04157C15.1974 2.96968 15.5977 1.94169 16.3102 1.18375C17.0227 0.425807 17.9891 0 18.9967 0H41.7928C42.8004 0 43.7668 0.425807 44.4793 1.18375C45.1918 1.94169 45.5921 2.96968 45.5921 4.04157H53.1908C55.2061 4.04157 57.1388 4.89319 58.5639 6.40907C59.9889 7.92496 60.7895 9.98094 60.7895 12.1247V72.7483C60.7895 74.8921 59.9889 76.9481 58.5639 78.464C57.1388 79.9798 55.2061 80.8315 53.1908 80.8315H7.59868C5.58339 80.8315 3.65063 79.9798 2.2256 78.464C0.800573 76.9481 0 74.8921 0 72.7483V12.1247C0 9.98094 0.800573 7.92496 2.2256 6.40907C3.65063 4.89319 5.58339 4.04157 7.59868 4.04157H15.1974ZM15.1974 12.1247H7.59868V72.7483H53.1908V12.1247H45.5921V16.1663C45.5921 17.2382 45.1918 18.2662 44.4793 19.0241C43.7668 19.7821 42.8004 20.2079 41.7928 20.2079H18.9967C17.9891 20.2079 17.0227 19.7821 16.3102 19.0241C15.5977 18.2662 15.1974 17.2382 15.1974 16.1663V12.1247ZM37.9934 8.08315H22.7961V12.1247H37.9934V8.08315ZM44.4789 35.5376C45.1912 36.2955 45.5913 37.3233 45.5913 38.3949C45.5913 39.4666 45.1912 40.4944 44.4789 41.2523L29.2815 57.4186C28.569 58.1763 27.6028 58.6019 26.5954 58.6019C25.5879 58.6019 24.6217 58.1763 23.9093 57.4186L16.3106 49.3355C15.9477 48.9627 15.6583 48.5167 15.4591 48.0236C15.26 47.5305 15.1552 47.0002 15.1508 46.4635C15.1464 45.9269 15.2426 45.3947 15.4336 44.898C15.6246 44.4013 15.9068 43.9501 16.2635 43.5706C16.6202 43.1911 17.0444 42.891 17.5113 42.6878C17.9783 42.4846 18.4786 42.3823 18.983 42.387C19.4875 42.3917 19.9861 42.5032 20.4496 42.715C20.9131 42.9268 21.3324 43.2347 21.6828 43.6207L26.5954 48.8465L39.1066 35.5376C39.8191 34.7799 40.7853 34.3542 41.7928 34.3542C42.8002 34.3542 43.7664 34.7799 44.4789 35.5376Z" fill="#21BECE"/>
</svg>
